<svg xmlns="http://www.w3.org/2000/svg" version="1.0" viewBox="0 0 1094 624"><path d="M0 3120V0h10940v6240H0V3120zm5660 1995c0-2-18-14-40-25s-40-22-40-24 21 2 47 10c65 20 219 31 209 16-4-7-17-12-29-12-59 0-357-119-357-143 0-15 46 1 95 34 56 38 160 74 241 85 75 9 235 8 294-4 40-7 30-9-78-15-124-8-278-30-291-42-8-9 118 3 179 17 78 17 256 11 365-11 105-22 209-50 203-56-1-1-30 2-63 8-70 12-436 15-480 4l-30-7 25 15c32 18 6 18-40-1-19-8-25-12-12-10 38 7 24-10-19-23-23-7-39-14-37-16 1-2 28 4 58 13 44 13 104 16 300 17 242 0 246 0 344-29 69-21 93-32 80-36-15-6-11-8 16-14 19-4 49-13 65-21 28-13 27-13-35-9l-65 4 85-19c65-15 77-20 50-21-26-2-17-5 39-16 83-15 100-23 50-25l-34-1 40-8c90-19 81-25-35-23-66 1-122-3-125-8-4-5 6-9 22-10 98-3 270-33 287-49 5-5-22-7-65-5l-74 5 78-19c79-19 106-31 71-31-10 0 7-11 39-24 54-22 137-71 137-80 0-2-35 7-77 21-96 32-132 39-118 26 6-6 44-20 85-33 78-23 169-66 120-56-133 26-320 50-320 41 0-5 74-26 179-50 89-20 184-62 229-100 30-25 39-50 10-29-19 14-79 33-118 38-66 8-78-16-15-28 88-17 192-82 228-144l17-31-57 39c-56 37-161 85-170 77-12-13 14-35 56-46 62-16 144-71 181-123 33-46 32-62-3-32-48 43-207 130-207 114 0-6 12-15 27-21 20-8 24-12 14-18-10-7-8-11 10-16 40-13 145-92 197-150 49-53 122-156 122-171 0-5-35 25-77 67-43 41-129 121-190 178-109 99-115 103-180 117-85 18-123 17-63-2 64-20 141-60 181-94l34-30-55 24c-139 61-96 28 102-76 65-34 101-67 58-53-118 38-142 40-65 6 111-49 267-182 319-273l20-33-46 42c-60 55-207 163-339 250-91 60-117 72-190 88-93 20-209 54-209 62 0 3 39 2 88-1 48-3 83-4 77-2-31 13-165 48-260 68-94 19-105 23-75 28l35 6-35 7c-19 3-57 10-85 14l-50 7 60 6 60 6-83 8c-45 5-81 10-80 11 7 6 98 14 178 16s82 2 35 9c-27 5-104 9-170 10-133 2-135 3-20 24 59 10 70 14 40 15-22 0-76-6-120-14-95-17-105-18-85-5 24 15-10 13-59-5-23-8-39-11-36-6 7 12 173 78 220 87l40 8-35 6c-42 7-98-7-203-49-87-35-100-38-71-16 24 18 14 18-61 0-76-18-98-18-60 1 22 11 24 13 8 10-30-6-29 0 5 18 43 24 14 19-83-15-120-41-175-58-175-53 0 2 28 18 63 35 34 17 82 46 107 64s82 51 128 74c151 76 85 54-132-44-32-14-77-38-100-54-23-15-59-38-81-51l-40-24 20 23 20 23-40-17c-142-60-159-64-88-18 24 15 29 22 16 18-44-12-22 5 65 50 49 25 102 60 118 77 27 30 27 31 4 17-159-97-228-144-223-152 3-6 1-7-6-3-6 4-26-2-45-13-18-11-36-18-39-15-3 4-23-4-44-17-28-17-34-19-24-6 18 23 155 120 245 174 39 24 63 43 54 43-21 0-87-38-231-135-62-42-123-83-137-92-28-18 40 49 115 115 60 52 27 33-108-61-54-38-100-67-103-65-2 3 41 42 96 88 161 134 121 117-70-30-165-126-172-129-62-20 50 50 92 93 92 95 0 6-53-15-60-23-3-4-41-41-84-82-76-72-78-73-45-26 19 26 40 57 48 67 7 11 9 19 3 19-13 0-83-77-117-129-15-22-29-41-31-41-11 0 55 120 85 154 9 10 11 17 5 15s-43-39-83-81c-116-127-89-80 71 120 54 67 95 122 91 122-5-1-45-47-91-103-45-56-97-118-115-137-17-19-49-54-69-78-21-23-38-38-38-34 0 12 88 138 154 221 31 39 53 71 49 70-7 0-167-183-253-289l-21-25 17 35c9 19 39 67 66 105l49 70-51-55c-28-30-69-81-91-113-23-32-42-57-45-55-4 5 37 87 63 125 32 46 35 53 21 48-7-3-35-35-63-72-91-120-110-136-59-48 26 44 62 98 79 120 42 53 102 144 83 125-41-40-146-174-195-247-30-46-57-83-59-83-6 0 61 130 90 175l27 40-33-37c-18-20-60-73-92-117-33-44-61-79-64-77-2 3 21 49 52 103 69 120 195 276 261 323 27 19 76 61 110 94 36 35 44 46 20 27-22-18-72-56-112-86-39-30-87-73-105-96s-57-71-87-107-75-95-101-131c-88-126-114-161-118-157-5 5 57 118 117 211 49 77 32 72-26-9-65-91-176-236-180-236-2 0 3 13 12 30 24 46 18 47-16 2-17-23-33-42-35-42-6 0-12-11 71 130 37 63 76 128 87 143 11 16 18 30 15 33-6 6-84-113-151-231-26-48-50-84-52-82-5 5 19 71 61 162 44 99 1 34-69-103-23-45-31-34-11 13 24 60 11 51-24-16-18-33-35-58-37-56-5 5 41 123 91 232 25 57 26 59 5 40-28-26-63-94-111-220-31-81-37-91-32-55 3 25 14 72 24 105 10 32 17 61 15 63-10 10-67-83-90-148l-27-75 5 50 5 50-24-30c-13-16-27-43-31-59-5-24-8-27-16-13-6 11-4 33 6 64 21 64 48 185 43 189-10 11-58-105-68-164-15-87-27-110-22-41 4 51 3 53-10 29-8-14-18-52-22-85-7-51-9-55-15-30-5 29-6 29-19 10l-13-20 8 20c3 11 10 67 14 125 5 58 12 114 16 124 5 13 4 17-3 13-6-4-14-33-18-64-3-32-10-74-15-93-4-19-12-62-16-95l-9-60-5 80-5 80-14-45c-21-73-30-89-24-46 4 26 3 37-4 33-6-4-14-28-18-53-14-93-24-92-25 1l-2 90-17-77c-9-42-18-79-21-82s-5 50-3 118c3 236 83 466 230 662 56 76 83 104 83 86 0-6-4-13-9-16-13-8-111-187-148-271-29-66-74-210-73-238 1-16 24 43 71 183 67 201 205 397 343 488 65 42 82 41 29-3-74-62-215-246-283-370-93-167-111-214-136-357-25-141-28-202-4-86 7 35 19 76 27 91s16 40 18 55c6 38 58 190 80 232 24 47 76 122 81 117 2-2-9-31-26-65-16-33-33-74-36-89-7-25-6-27 9-15 9 8 21 30 28 50 20 63 95 218 130 269 89 131 202 232 326 292 100 49 111 45 28-10-159-106-326-293-412-463-39-76-5-41 74 77 43 65 110 144 183 218 118 119 202 178 283 200 23 6 66 18 95 26s55 13 58 10-25-21-63-41c-37-20-84-50-103-67-32-28-31-27 24 7 32 20 79 45 105 57 55 24 141 48 141 39 0-4-27-21-59-39-63-34-208-128-336-220-87-62-85-54 14 51l66 70-60-54c-62-54-181-180-171-180 17 0 68 30 115 68 49 39 111 78 111 69 0-2-20-26-45-53-44-48-58-73-31-57 7 4 39 39 72 77 107 128 275 234 476 301 128 43 149 44 78 2-74-43-207-134-215-147-4-6 29 10 72 36s92 54 108 62c17 9 41 22 55 29 103 56 151 76 209 89 83 17 91 17 66-2-19-16-19-16 5-8 85 27 130 37 130 29zm-1640-367c-56-85-112-255-149-457-26-135-61-404-62-467 0-36-3-44-9-29-10 24-4 222 10 355 28 260 104 496 191 595 39 44 48 45 19 3zm168 15c-8-10-33-40-56-67-84-98-139-193-240-416-19-42-3 42 25 132 43 141 131 269 226 333 58 39 66 43 45 18zm-437-139c-45-175-83-500-83-729 0-86-4-141-9-130-6 16-8 13-9-15l-2-35-9 40c-35 148-50 476-30 651 16 131 32 213 44 221 6 4 7-4 2-23-11-42-22-323-14-359l7-30 1 31c3 84 93 436 107 421 3-3 1-22-5-43zm56 24c-12-46-47-296-57-403-9-91-18-198-41-485-1-8-5 5-9 30-18 100 5 460 40 644 19 98 59 236 67 236 3 0 3-10 0-22zm39-159c-26-161-57-400-77-607-6-67-14-120-17-117-15 15 5 402 29 550 20 126 76 342 85 332 3-3-6-74-20-158zm-250 64c-25-120-39-302-45-558l-6-290-15 75c-22 108-20 424 3 550 20 105 57 250 64 250 2 0 2-12-1-27zm-275-143c2-129 6-182 29-405 18-168 20-188 30-244 26-145-5-85-40 77-29 134-48 352-45 507 3 117 12 211 21 203 1-2 4-64 5-138zm122-42c4 29 12 62 18 75 8 18 9 17 4-12-3-18-6-194-6-390-1-316-3-349-14-291l-13 65-2-70c-1-59-3-65-11-40-32 107-36 543-7 740l13 90 5-110c5-101 6-106 13-57zm-123-528c17-85 36-166 41-180 9-24 8-24-6-6-58 75-126 397-124 591l1 100 27-175c16-96 43-245 61-330zm3745 155c67-18 152-65 193-108l27-28-65 25c-36 14-107 43-158 66-51 22-96 40-102 40-5 0-12 5-15 10-9 15 52 12 120-5zm300-203c91-52 220-175 278-264 57-88 56-97-5-31-76 83-164 163-285 261-139 112-136 120 12 34zm-4225-12v-50H1620V2040l1723-2 1722-3v-100l-1772-3-1773-2v1900h1620v-50zm6468-897-3-948h-250v100l73 3 72 3v1689H7720v100h1890l-2-947zm-7495 376c54-15 114-72 128-121 19-72-7-132-72-172l-39-23 40-18c50-23 104-80 120-130 18-55 8-136-22-182-52-79-161-113-365-113h-113v770h143c78 0 159-5 180-11zm707-9c0-19-7-20-140-20h-140v-319l112-3c98-3 113-5 116-20 3-16-7-18-112-18h-116v-330h140c134 0 140-1 140-20 0-20-5-20-212-18l-213 3-3 383-2 382h215c208 0 215-1 215-20zm526-365c75-198 139-368 141-377 5-16-3-18-66-18-80 0-81 1-116 110-10 30-26 79-37 108l-19 52h-216l-52-136c-41-106-56-134-69-132-9 2-16 10-15 18 2 8 62 164 134 345 72 182 138 350 146 374 11 31 18 39 24 30 4-8 69-176 145-374zm364 98c0-173 4-303 11-326 6-22 25-55 43-75 30-32 39-36 95-40 105-8 178 34 218 123 15 35 18 78 21 323 3 240 6 282 18 282 13 0 15-41 12-297l-3-298-31-54c-23-42-43-62-85-85-50-29-61-31-149-31-105 0-168 21-224 73-63 59-66 77-66 400v292h140v-287zm1038 270c-3-16-17-18-105-21l-103-3-2-362-3-362-67-3-68-3v731h-105c-98 0-105 1-105 20 0 20 7 20 281 20 262 0 280-1 277-17zm328-195 118-211 98 203c54 111 98 207 98 211 0 5 9 9 20 9s20-4 20-8c0-5-52-115-115-245l-115-236v-282l-67 3-68 3-5 145-5 145-122 220c-67 122-125 229-129 238-5 15 3 17 74 17h80l118-212zm2459 185c181-54 291-239 256-429-24-131-92-222-209-277-63-30-74-32-182-32-96 0-124 4-172 23-243 98-310 423-128 616 104 110 273 148 435 99zm1721 1c49-18 77-45 68-68-8-21-17-20-39 4-9 10-37 27-61 36-84 32-160 2-184-73-25-75 16-135 147-214s177-134 189-223c12-86-46-160-152-192-71-21-189-18-244 7-61 28-110 67-110 88 0 32 13 31 53-5 51-47 96-65 163-65 83-1 130 39 141 119 10 71-28 115-172 199-78 46-138 103-154 146-15 40-14 113 3 145 54 103 212 146 352 96zm-3101-10c73-38 109-119 86-196-10-31-23-46-62-70l-49-31 48-22c82-39 122-103 122-195 0-91-41-149-135-192-45-20-66-22-210-23h-160l-3 378-2 378 162-3c142-3 168-6 203-24zm570 11c102-27 175-102 175-182 0-60-19-101-68-145-36-33-119-68-159-68-7 0-13-2-13-5s63-80 140-170 140-167 140-170-10-5-23-5c-18 0-58 41-171 175-129 153-150 175-176 175h-30l-2-172-3-173-67-3-68-3v761h133c87 0 153-5 192-15zm1269-17c7-18 48-131 91-251s80-215 83-213c2 3 49 116 102 252 79 199 100 243 108 228 5-11 53-120 107-244s101-229 105-233c4-5 47 103 96 239 49 135 95 249 102 251 34 13 39 32-191-604-28-79-54-143-57-143s-54 113-115 250c-60 137-113 250-116 250-4 0-9-8-12-17-18-62-187-478-193-476s-274 719-274 736c0 4 34 7 76 7h75l13-32zm-2661-896c16-18 16-19-5-18-17 1-29-11-50-49-28-52-61-146-72-205l-6-35 17 25c10 13 31 39 47 58 66 75 102 0 51-105-32-64-49-74-78-44l-22 22 26-6c24-6 29-2 47 37 30 64 37 108 18 108-20 0-80-81-102-137-18-45-31-54-41-27-15 39 67 299 114 362 28 37 34 39 56 14zm2653-3c19-21 19-22-3-15-30 10-63-42-102-160-33-97-41-147-18-108 7 11 26 38 43 58 25 30 37 37 53 31 24-7 29-46 8-64-19-15-28-3-20 28 6 26 6 26-15 7-32-28-35-51-13-101 26-58 64-97 88-89 15 6 14 3-4-16-22-24-22-24-44-4-12 10-35 43-52 73l-31 54-18-23c-10-12-18-31-18-41 0-18-20-26-32-13-17 16 63 285 107 360 29 49 43 54 71 23zm175 11c10-6 19-15 19-21s-5-7-10-4c-27 17-72-60-114-194-15-46-25-86-22-88 2-2 13 11 24 29 51 83 107 103 107 38 0-19-4-48-8-64-7-27-7-28 8-16 9 8 2-10-16-38-42-68-57-54-30 26 22 64 27 112 12 112-12 0-57-61-88-120-25-49-36-59-47-41-16 25 73 303 116 363 22 32 22 32 49 18zm942-4c22-17 22-23-4-22-15 1-29-13-50-49-28-50-84-224-74-233 2-3 8 3 11 13 4 10 24 36 45 59 33 35 41 39 56 30 28-18 12-87-16-70-7 5-7 15-1 31 13 35-4 32-30-5l-21-30 21-47c25-57 67-104 86-96 10 3 12 0 8-10-9-24-35-29-55-11-9 8-30 40-46 70-15 30-32 54-36 54-5 0-16-18-24-40-23-58-47-54-38 7 17 112 84 304 122 345 19 21 23 22 46 4zm-3107-67c4-6-27-45-71-90l-78-78 26-39c41-58 83-96 101-89 23 9 20-7-5-29-21-18-21-18-57 22-83 93-112 128-112 136 0 4 15 14 33 22 37 15 110 94 101 108-7 12 25 48 42 48 7 0 16-5 20-11zm1637-3c17-13 17-17 4-49-17-40-34-54-49-39-7 7-5 18 6 33 27 39 21 52-21 45-37-6-38-6-13 8 31 19 50 19 73 2zm-1773-5c0-6-4-12-9-15-15-10-79-178-92-244-14-65-35-79-32-21 2 28 29 109 78 231 6 15 3 16-25 8-52-15-83-39-77-61 6-23-8-26-17-3-15 40-6 52 52 73 31 12 66 26 77 31 27 12 45 12 45 1zm490-8c0-3-7-14-15-23-8-8-21-32-30-53-15-37-15-37 10-37 14 0 25-4 25-10 0-5-13-10-28-10-26 0-29-5-45-64-25-93-23-105 8-76 14 13 25 19 25 13 0-5-11-19-23-32-29-26-61-19-54 13 28 121 30 138 17 146-10 6-8 10 6 18 11 6 30 35 43 66 16 40 28 56 42 56 10 0 19-3 19-7zm2480-3c0-5-4-10-10-10-10 0-33-39-44-77-6-20-4-23 18-23 14 0 26-4 26-10 0-5-13-10-30-10-27 0-31-4-44-52-31-114-30-124 6-91 30 27 30 9 0-20-19-18-31-23-42-17-12 7-12 19-3 72 7 35 15 73 19 86 5 17 2 22-12 22-15 1-13 4 9 16 15 8 27 20 27 27s9 31 20 55c13 29 25 42 40 42 11 0 20-4 20-10zm-1318-22c-20-20-14-55 23-128 42-83 43-99 9-139-34-41-77-41-132-1-42 30-62 57-62 84 0 9 7 16 15 16s15-6 15-13c0-15 45-59 77-76 12-6 33-11 47-11 41 0 42 32 2 117-20 41-36 87-36 101 0 25 38 77 49 67 2-3-1-11-7-17zm-2082-100c0-13-6-51-13-85-12-55-12-61 1-50 16 12 87 118 95 140 3 9 8 9 16 1 15-13 1-83-40-211-33-101-76-168-116-184-32-12-83 3-108 31-21 23-9 26 19 5 50-38 110-6 150 79 22 47 66 186 66 209 0 5-20-18-44-51-49-66-61-76-81-69-11 5-11 12 0 44 7 21 16 60 21 88 6 46 6 49-9 36-22-18-22-3 0 21 22 25 43 23 43-4zm704 16c20-8 21-24 2-24s-65-55-87-105c-39-87 14-54 84 53 57 86 71 82 43-11-12-41-12-45 2-39 13 5 13 2-1-18-9-14-17-33-17-43 0-11-5-17-12-14-15 4-16 49-4 87 6 18-7 8-46-34-39-43-59-58-71-53-24 9-21 39 7 96 22 42 72 111 81 111 2 0 10-3 19-6zm316-39c0-38-4-47-22-54-13-5-29-6-37-3-18 7-31-16-31-55 0-41 10-41 55-2 49 44 53 31 5-16-38-37-41-38-66-25-24 13-26 18-20 63 10 73 53 137 93 137 21 0 23-4 23-45zm180 16c0-27-12-61-21-61-4 0-9 15-11 33l-3 32-31-55c-18-30-37-72-44-92-6-21-16-38-21-38-19 0-20 30-5 84 19 64 19 69 5 60-16-10 6 29 26 46 25 20 29 5 12-47-9-27-11-40-4-29 46 71 68 95 82 90 8-4 15-14 15-23zm70 7c0-13-6-51-13-85-12-55-12-61 1-50 16 12 87 118 95 140 3 9 8 9 16 1 9-9 8-27-4-80-41-179-96-293-152-315-32-12-83 3-108 31-21 23-9 26 19 5 34-26 75-19 111 20 33 34 85 160 100 240l7 40-45-62c-50-67-62-77-82-70-11 5-11 12 0 44 7 21 16 60 20 87 6 45 5 49-9 37-21-18-21-3 1 21 22 25 43 23 43-4zm196-35-6-44 33 43c23 30 40 43 58 43 23 0 24-3 24-55 0-59-30-140-52-140-16 0-17-7 7 68 21 68 26 112 11 112-12 0-74-85-97-132-10-21-24-38-31-38-17 0-16 3 7 74 25 75 26 98 3 89-17-6-16-5 0 15 30 34 50 17 43-35zm263 43c9-11 7-15-11-20-26-6-83-86-94-130-6-24-4-27 8-20 23 13 88 94 106 132 28 58 49 35 27-28-18-51-19-64-4-54 7 4 10 3 7-2-2-5-10-24-17-42-10-25-16-30-26-22-9 8-10 21-4 48 13 58 12 58-31 4-22-27-47-53-56-56-60-23-37 85 37 169 34 39 41 41 58 21zm1373-17c-1-13-3-31-4-39s-5-19-10-25c-5-5-23-34-39-63-26-46-34-53-57-50-26 3-27 5-30 71-2 40-7 65-12 62-18-11-10 10 14 40 33 41 50 24 31-30-8-22-14-53-14-70-1-37 14-64 28-50 18 19 62 115 56 124-9 15 14 63 28 58 6-2 11-15 9-28zm138-9c0-31-5-43-25-56-14-9-32-13-42-10-21 8-33-10-33-51s15-42 63-2c47 39 48 24 2-21-31-30-38-33-62-24-29 10-32 24-21 84 4 24 32 84 49 106 5 6 22 11 39 12 28 1 30-1 30-38zm248 13c-4-34-28-43-28-10 0 25 7 37 22 37 5 0 8-12 6-27zm349 5c21 4 23-15 8-58-18-51-19-64-4-54 7 4 10 3 7-2-2-5-10-24-17-42s-18-31-25-29c-12 5-13 26-1 77 8 35 7 34-39-22-47-58-81-73-93-43-9 25 25 100 68 149 37 41 43 45 62 34 12-7 27-11 34-10zm-1484-9c-1-8-11-38-22-67-12-30-17-51-11-47 13 8 13 5-1-34-20-58-48-29-31 33 6 20 9 36 8 36-2 0-18-23-37-50-24-36-40-50-54-48-17 3-20 10-18 43 3 95 20 145 48 145 17 0 19-12 5-26-10-10-41-136-35-142 10-10 40 26 83 100 25 43 50 77 56 75s10-10 9-18zm556 7c30-19-10-154-55-181-26-17-81-1-89 25-7 22 19 111 42 147 11 16 23 21 51 19 20-1 43-6 51-10zm531-1c-10-12-10-28 1-81 13-65 13-66-11-85-26-20-90-26-90-9 0 6 16 10 35 10 45 0 57 22 39 73-19 53-18 84 4 96 25 15 36 13 22-4z" transform="matrix(.1 0 0 -.1 0 624)"/><path d="M5345 5004c-60-31-120-67-133-80s-34-31-48-40c-13-9-23-18-21-21 8-7 62 19 87 41 14 13 37 30 51 37 14 8 53 32 86 54s69 45 79 52c41 26 4 10-101-43zM5398 4963c-15-10-30-23-33-31-5-14 49 21 60 38 8 13 5 12-27-7zM5670 4940c0-5 7-7 15-4 8 4 15 8 15 10s-7 4-15 4-15-4-15-10zM5965 4898c-44-4-91-13-105-18-21-9-19-9 16-5 22 2 85 7 140 11 54 4 117 10 139 14 58 11-86 10-190-2zM6323 4904c11-11 99-15 92-4-3 5-27 10-52 10-26 0-44-3-40-6zM5584 4885c-10-8-14-15-8-15 5 0 19 7 30 15 10 8 14 15 8 15-5 0-19-7-30-15zM6458 4893c12-2 30-2 40 0 9 3-1 5-23 4-22 0-30-2-17-4zM5312 4808c-48-45-100-95-117-111-29-29-28-29 15 3 25 19 70 58 100 86 30 29 69 64 85 78 17 14 24 26 17 26-8 0-53-37-100-82zM6160 4871c-87-24-104-32-52-27 23 2 42 0 42-5 0-12 191 0 205 12 5 5-27 9-75 9-80 1-83 2-55 15 41 18 13 17-65-4zM6528 4883c6-2 18-2 25 0 6 3 1 5-13 5s-19-2-12-5zM5299 4853c-13-16-12-17 4-4 9 7 17 15 17 17 0 8-8 3-21-13zM4836 4815c-27-18-54-39-60-46s0-5 14 4c39 27 46 20 14-14-16-18-22-28-13-23 21 11 114 114 102 113-4 0-30-15-57-34zM6498 4843c12-2 30-2 40 0 9 3-1 5-23 4-22 0-30-2-17-4zM5376 4812c-27-15-52-33-54-40-5-17 39 6 83 43 38 32 32 31-29-3zM5171 4800c-19-16-32-32-30-35 3-2 21 11 39 30 41 42 37 45-9 5zM5537 4798c-31-17-55-33-53-35 4-5 116 56 116 63 0 6-1 6-63-28zM5805 4815c-25-12-26-14-5-9 28 7 60 23 45 23-5 0-23-6-40-14zM6370 4799c0-5 27-9 60-9 35 0 60 4 60 10s-24 10-60 9c-33-1-60-6-60-10zM6159 4785c-3-2-27-7-54-10-80-11-65-14 54-13 61 1 108 5 104 9-9 8-99 20-104 14zM5647 4735c-21-12-46-29-54-38-14-14-13-15 19-8 19 5 43 14 54 20 17 11 17 11-6 6-24-6-24-5-6 9 10 8 24 17 30 19s9 6 6 9-22-5-43-17zM5762 4740c-12-20-12-21 18-5 34 18 38 25 12 25-9 0-23-9-30-20zM6018 4753c7-3 16-2 19 1 4 3-2 6-13 5-11 0-14-3-6-6zM4425 4665c-74-91-91-115-78-115 15 1 38 25 67 70 16 25 44 64 63 88 19 23 31 42 26 42-4 0-39-38-78-85zM4920 4670c-72-79-84-101-34-57 27 22 119 137 111 137-3 0-37-36-77-80zM5580 4731c-59-28-82-42-77-47 4-5 113 49 126 61 9 10-15 3-49-14zM6115 4729c-44-10 131-10 180 1 32 6 20 8-55 7-52 0-108-4-125-8zM5422 4714c-29-7-73-27-97-44-24-16-48-30-53-30s-15-7-22-15-10-15-7-15c11 0 105 45 139 67 43 27 56 29 38 8-21-25 3-16 40 15 40 33 36 34-38 14zM6010 4705l-45-13 41-1c22-1 49 6 60 14 24 18 7 18-56 0zM6403 4712c-24-2-43-8-43-14 0-7 20-9 61-4 34 3 74 6 88 6 20 0 23 2 11 10-8 5-28 8-45 7-16-1-49-3-72-5zM4781 4675c-36-41-160-224-185-273-25-48-14-49 15-1 53 87 153 236 180 267 28 31 34 42 25 42-2 0-18-16-35-35zM5201 4615c-34-41-55-72-47-69 9 3 33 29 53 57 21 29 44 60 51 69 7 10 11 18 9 18s-32-34-66-75zM5757 4675c-20-8-47-21-60-30l-22-17 25 8c14 4 32 8 40 8 17 2 80 34 80 41 0 8-23 4-63-10zM4703 4658c-18-13-31-27-29-33 2-5-23-38-55-72-65-70-182-233-173-242 7-7 30 22 90 114 49 74 142 177 154 170 7-4 60 67 60 80 0 10-16 4-47-17zM6145 4665l-30-14 40 6c22 3 49 9 60 14 17 6 15 8-10 8-16 0-43-6-60-14zM5540 4645c-25-13-63-40-85-60-46-42-37-38 60 23 80 51 80 51 74 56-2 2-24-6-49-19zM6500 4659l-35-6 40-2c33-2 37-4 20-12-15-7-12-8 15-4 19 3 61 8 92 12 32 3 55 10 52 15-6 9-124 7-184-3zM6238 4634c-42-22-34-26 15-7 51 20 56 23 31 23-10-1-31-8-46-16zM6298 4636c-30-22-20-26 27-9 25 8 45 17 45 19 0 10-57 2-72-10zM4893 4576c-34-33-71-74-84-90l-23-29 27 17c29 20 164 167 150 165-4-1-36-29-70-63zM4559 4612c-18-9-34-24-34-33s-14-32-32-52c-17-19-44-55-61-79-30-45-132-239-132-253 0-5 12 2 26 16 30 27 63 89 57 105-5 15 82 144 156 232 35 41 61 75 59 78-2 2-20-4-39-14zM5670 4600c-25-16-42-30-39-30 11 0 88 40 94 50 10 17-8 10-55-20zM5835 4613c-39-16-211-116-229-134-6-6-5-9 3-9 17 0 125 61 130 73 2 5 40 27 85 48 80 38 88 53 11 22zM6340 4590c-47-15-76-28-65-29 11 0 58 13 105 28 47 16 76 29 65 29s-58-12-105-28zM6595 4600c-16-4 19-5 79-2 81 4 107 2 102-6-4-7-14-12-23-12s-67-11-129-25c-84-19-126-34-162-59-27-17-78-45-115-61-37-15-65-30-63-33 8-7 166 50 160 59-2 4 6 11 18 14 13 4 30 13 38 21 13 11 228 68 325 87 14 2 9 7-20 15-44 13-162 14-210 2zM5300 4575c-30-32-14-32 25 0 20 17 25 25 14 25-8 0-26-11-39-25zM6489 4574c-12-15-11-16 11-9 46 14 58 24 29 25-15 0-33-7-40-16zM5948 4559c-36-19-47-29-30-29 4 0 25 11 47 25 48 29 36 32-17 4zM5215 4552c-5-4-19-18-30-32-16-21-14-20 13 4 29 27 37 36 30 36-2 0-7-4-13-8zM6858 4553c6-2 18-2 25 0 6 3 1 5-13 5s-19-2-12-5zM5495 4540c-3-5-2-10 4-10 5 0 13 5 16 10 3 6 2 10-4 10-5 0-13-4-16-10zM6287 4493c-75-31-136-57-135-58 10-9 131 25 168 47 25 14 63 35 85 47 67 34 26 22-118-36zM4372 4496c-44-48-57-68-77-127-16-45-6-50 30-14 31 30 34 56 3 29-21-19-21-18 2 21 12 22 35 56 50 75 55 73 52 81-8 16zM5105 4500c-16-16-27-32-24-34 4-5 69 50 69 59 0 13-19 2-45-25zM5977 4484c-27-14-47-28-44-30 6-7 83 32 92 46 8 13 8 13-48-16zM6645 4500c-14-6 5-9 58-9 50-1 76 3 72 9-7 12-102 12-130 0zM5380 4458c-61-46-129-118-111-118 6 0 32 21 59 48 26 26 65 62 87 79 59 47 29 40-35-9zM6740 4471c-19-6-10-9 38-12 60-4 79 2 46 15-20 8-52 6-84-3zM5447 4432c-51-26-58-40-12-22 28 10 85 51 69 49-5-1-31-13-57-27zM6749 4409c27-11 160-9 167 3 3 4-39 8-93 7-72 0-92-3-74-10zM4230 4395c-7-9-10-18-7-21s10 4 17 15c13 25 8 27-10 6zM4999 4373c-13-16-12-17 4-4 9 7 17 15 17 17 0 8-8 3-21-13zM4563 4338c-15-20-25-38-20-38 3 0 12 11 21 25 17 26 16 35-1 13zM4190 4309c-7-11-10-23-7-25 2-2 9 7 15 21 14 30 7 33-8 4zM6650 4320c0-5 7-7 15-4 8 4 15 8 15 10s-7 4-15 4-15-4-15-10zM6690 4320c0-5 5-10 10-10 6 0 10 5 10 10 0 6-4 10-10 10-5 0-10-4-10-10zM6728 4318c-8-4 3-8 28-8 56 0 185-34 253-67 112-53 173-67 96-22-26 16-33 24-24 30 15 9 18 8-71 33-73 21-266 45-282 34zM4283 4295c-15-10-31-45-48-103-14-48-30-98-36-111-9-21-8-23 5-12 8 7 23 36 32 64 9 29 29 80 45 115 15 34 27 62 26 62-2 0-12-7-24-15zM4115 4249c-11-16-34-121-34-149 0-50 23 13 53 143 5 19-9 23-19 6zM3891 3984c0-11 3-14 6-6 3 7 2 16-1 19-3 4-6-2-5-13zM1930 3095v-135h55c66 0 96 13 118 50 21 36 22 131 2 170-21 40-43 50-114 50h-61v-135zM1930 2730v-190h59c106 0 165 67 165 190 0 82-17 132-55 165-26 21-40 25-100 25h-69v-190zM3097 2923l-46-118 86-3c47-2 88-1 90 2 6 5-65 215-77 229-4 4-27-45-53-110zM7314 3211c-95-43-154-158-162-311-5-109 16-190 69-266 80-117 239-130 330-26 44 50 76 124 90 208 20 120-21 269-93 344-66 67-155 87-234 51zM5935 3218c-3-8-4-70-3-139l3-124 40-3c22-2 57 2 78 8 32 9 42 19 59 57 30 68 13 162-34 192-33 20-136 27-143 9zM5935 2909c-3-8-4-93-3-189l3-175 60-3c112-5 160 53 160 193-1 130-36 173-150 183-50 4-66 2-70-9zM6540 3061v-171h60c34 0 73 6 89 14 61 32 87 174 46 245-31 52-65 72-133 78l-62 6v-172zM6397 2101c-22-38-22-43 6-39 17 2 23 11 25 36 4 40-8 41-31 3zM8613 2106c-28-35-29-46-3-46 23 0 33 18 28 52-3 23-3 22-25-6zM9193 2093c-46-51-82-141-51-131 17 6 108 126 108 144 0 23-29 16-57-13zM8279 2105c-29-16-46-48-55-104-7-42 4-56 35-46 23 7 56 73 65 128 8 41-1 46-45 22z" transform="matrix(.1 0 0 -.1 0 624)"/></svg>