<?xml version="1.0" standalone="no"?>
<!DOCTYPE svg PUBLIC "-//W3C//DTD SVG 20010904//EN"
 "http://www.w3.org/TR/2001/REC-SVG-20010904/DTD/svg10.dtd">
<svg version="1.0" xmlns="http://www.w3.org/2000/svg"
 width="1099.000000pt" height="622.000000pt" viewBox="0 0 1099.000000 622.000000"
 preserveAspectRatio="xMidYMid meet">

<g transform="translate(0.000000,622.000000) scale(0.100000,-0.100000)"
fill="#000000" stroke="none">
<path d="M5615 5109 c-16 -4 -39 -6 -51 -3 -52 13 -234 -46 -285 -92 -9 -8
-25 -16 -35 -18 -11 -2 -57 -27 -103 -56 -46 -28 -81 -47 -77 -42 4 8 134 94
219 146 50 31 22 28 -94 -10 -210 -68 -356 -158 -486 -299 -43 -47 -82 -85
-88 -85 -5 0 15 25 45 55 30 30 51 55 47 55 -17 0 -74 -34 -117 -69 -43 -35
-99 -66 -106 -58 -2 2 31 37 73 78 42 40 58 52 34 26 -44 -49 -49 -77 -8 -40
48 43 246 176 376 253 41 24 69 46 63 48 -6 2 -49 -10 -96 -26 -47 -15 -86
-27 -86 -25 0 1 21 14 48 28 47 26 47 26 12 21 -179 -28 -277 -81 -422 -229
-86 -87 -121 -130 -197 -244 -34 -51 -64 -93 -67 -93 -8 0 36 81 83 154 83
129 227 271 359 354 72 46 54 53 -33 13 -197 -93 -342 -256 -446 -501 -27 -63
-53 -119 -59 -125 -15 -15 -1 27 38 113 34 75 35 87 3 50 -37 -44 -78 -124
-104 -203 -14 -44 -29 -87 -32 -95 -4 -8 -7 -22 -8 -31 -3 -21 -37 -110 -41
-106 -2 1 3 41 11 87 28 162 193 446 359 618 49 51 87 94 85 97 -3 2 -27 -10
-54 -27 -61 -38 -180 -157 -220 -219 -17 -26 -36 -55 -43 -65 -15 -21 23 51
58 111 l23 40 -42 -40 c-162 -154 -288 -483 -290 -760 -1 -123 9 -129 33 -20
l15 70 -3 -60 c-2 -33 0 -69 4 -80 6 -17 9 -13 18 20 6 22 13 51 15 65 3 20 5
19 6 -8 1 -45 17 -32 25 20 11 69 27 82 23 18 -2 -30 -1 -66 3 -80 4 -18 13
11 28 100 21 124 21 125 18 45 -3 -44 -8 -90 -11 -103 -6 -18 -4 -21 9 -16 11
4 16 1 16 -12 0 -39 20 10 20 51 0 22 7 51 15 65 13 23 14 19 10 -45 -6 -87 8
-51 25 64 7 42 19 87 28 101 9 14 20 32 25 40 8 16 4 -9 -16 -110 -8 -36 -19
-74 -24 -85 -12 -23 -6 -78 8 -69 5 3 9 12 9 21 0 22 39 103 50 103 4 0 4 -19
-1 -42 -19 -83 -2 -70 29 23 21 63 42 105 59 120 23 22 25 22 19 4 -12 -30
-36 -147 -35 -170 0 -11 9 5 20 35 70 187 98 248 123 269 22 18 20 8 -8 -47
-32 -63 -98 -234 -92 -239 3 -3 19 19 36 49 27 45 32 41 13 -9 -3 -7 -3 -13 0
-13 3 0 27 38 52 85 26 47 48 85 50 85 2 0 -11 -35 -30 -77 -18 -43 -36 -89
-40 -103 l-6 -25 21 25 c17 21 19 22 14 5 -5 -17 -2 -16 14 5 57 70 54 68 37
32 -9 -19 -15 -35 -13 -37 5 -5 110 130 173 222 27 39 51 70 53 69 1 -2 -18
-38 -43 -80 -56 -95 -98 -177 -92 -182 2 -2 39 47 83 108 43 62 99 137 125
168 25 30 65 81 89 114 38 50 99 103 219 190 39 28 -56 -57 -119 -107 -30 -23
-89 -85 -131 -137 -77 -94 -194 -281 -187 -299 1 -6 37 35 78 89 41 55 76 100
78 100 2 0 -17 -39 -43 -86 -25 -47 -44 -88 -42 -90 2 -2 30 35 62 83 52 79
132 182 174 223 19 19 11 8 -51 -75 -50 -68 -132 -204 -126 -211 3 -2 32 33
66 79 34 46 71 92 84 103 l22 19 -17 -25 c-28 -41 -89 -162 -78 -156 6 4 35
40 66 80 64 85 105 125 53 51 -42 -59 -72 -115 -61 -115 5 0 20 17 35 38 25
35 174 211 205 242 9 8 -19 -32 -61 -89 -75 -101 -111 -159 -104 -166 2 -2 37
34 77 80 100 115 115 125 42 28 -33 -44 -61 -85 -61 -90 1 -4 37 30 81 77 45
47 72 72 61 55 -34 -52 -73 -135 -63 -135 5 0 11 6 14 13 9 23 127 167 137
167 5 0 -13 -32 -42 -70 -52 -71 -63 -112 -13 -45 34 43 161 155 178 155 6 0
-30 -41 -81 -92 -51 -50 -90 -93 -88 -95 2 -3 71 48 152 111 82 64 153 116
159 116 11 0 16 5 -90 -82 -79 -65 -135 -120 -105 -103 8 5 44 29 80 54 36 24
88 60 115 79 l50 34 -35 -33 c-19 -18 -59 -54 -87 -80 -59 -53 -71 -75 -20
-37 111 85 363 245 372 236 2 -2 -24 -21 -59 -41 -80 -47 -270 -186 -263 -193
3 -3 24 6 47 21 23 15 39 22 36 16 -10 -16 6 -13 32 5 13 9 33 17 45 19 12 1
31 6 42 10 11 4 5 -3 -14 -14 -50 -33 -31 -35 40 -6 92 38 96 39 74 22 -11 -8
-18 -18 -15 -21 3 -2 41 18 85 46 85 54 244 132 253 123 3 -3 1 -5 -4 -5 -6 0
-39 -19 -75 -43 -35 -24 -97 -61 -137 -82 -40 -21 -70 -40 -68 -43 4 -3 131
35 241 74 l20 7 -20 -16 c-15 -13 -16 -17 -5 -17 9 0 5 -6 -10 -15 -14 -8 -20
-14 -15 -14 9 -1 115 23 160 35 13 4 10 -2 -10 -15 -44 -31 -22 -26 90 20 58
23 123 42 155 45 l55 5 -80 -30 c-171 -62 -239 -106 -101 -64 13 4 16 2 11 -8
-6 -9 -2 -10 16 -5 13 3 44 8 69 11 25 2 36 2 25 -1 -48 -14 -27 -19 68 -18
56 1 122 -2 147 -6 40 -7 35 -8 -40 -9 -89 -2 -158 -18 -90 -21 19 -1 44 -5
55 -10 16 -7 14 -9 -15 -9 -46 -2 -20 -21 28 -21 20 0 32 -5 32 -13 0 -9 36
-21 108 -36 59 -12 134 -30 167 -39 l60 -17 -65 -5 -65 -5 70 -22 c39 -12 111
-32 160 -44 55 -13 106 -33 133 -51 53 -37 55 -47 2 -13 -51 32 -147 57 -202
53 -42 -3 -38 -5 112 -69 85 -36 166 -70 180 -74 24 -7 23 -5 -10 31 l-35 38
30 -19 c81 -49 247 -175 303 -229 68 -66 78 -65 32 4 -58 87 -172 187 -285
250 -39 21 -34 22 35 4 24 -7 24 -7 8 13 -10 10 -39 30 -65 43 -59 29 -140 80
-127 80 5 -1 20 -7 34 -15 38 -22 46 -18 19 11 -13 14 -60 43 -104 65 -84 41
-85 47 -7 27 37 -9 70 -31 157 -109 61 -53 149 -136 198 -183 48 -47 87 -83
87 -80 0 12 -35 72 -70 119 -47 63 -158 167 -210 197 -22 13 -40 27 -40 32 0
5 -8 15 -17 23 -30 24 98 -47 150 -83 26 -19 50 -34 53 -34 14 0 -36 67 -82
109 -34 31 -72 54 -117 70 -63 22 -85 36 -74 47 8 8 150 -61 183 -89 59 -50
60 -28 3 37 -43 48 -120 94 -199 117 l-45 14 41 3 c24 2 62 -5 93 -18 66 -26
69 -25 40 6 -45 49 -171 102 -303 128 -44 9 -82 19 -85 22 -5 5 96 -1 109 -6
3 -1 8 -2 12 -1 12 1 169 -28 178 -34 6 -3 10 -2 10 3 0 13 -106 59 -168 73
-29 7 -52 16 -52 20 0 6 45 -6 170 -46 25 -8 25 -8 6 14 -11 12 -48 36 -83 53
-40 19 -59 34 -52 39 7 4 -13 13 -47 20 l-59 13 50 6 50 6 -43 12 c-62 19
-200 42 -246 42 -22 0 -37 2 -34 5 3 3 56 6 117 6 69 0 109 3 106 9 -3 6 -15
10 -26 10 -10 0 -19 6 -19 14 0 8 -14 18 -32 21 -18 4 -36 12 -39 17 -3 5 -30
16 -60 23 -30 8 -42 13 -26 11 39 -5 33 10 -10 24 -21 7 -45 19 -54 26 -18 16
-123 54 -153 55 -21 0 -21 1 -1 8 16 7 10 11 -35 24 -110 31 -176 46 -235 53
-64 7 -107 22 -70 25 45 3 -57 19 -155 25 -74 4 -130 1 -190 -10 -46 -8 -86
-13 -88 -11 -2 2 40 13 92 25 53 13 96 25 96 28 0 7 -211 -4 -235 -12 -11 -4
-8 0 8 9 15 8 27 18 27 20 0 8 -42 4 -75 -6z m-196 -83 c-19 -18 -101 -76
-107 -76 -4 0 -31 -18 -61 -40 -67 -50 -91 -52 -32 -2 44 37 234 149 200 118z
m521 -7 c-25 -5 -74 -11 -110 -13 l-65 -5 75 13 c41 7 91 13 110 13 32 0 31 0
-10 -8z m-330 -13 c0 -7 -93 -61 -117 -68 -40 -11 -25 1 45 36 74 38 72 38 72
32z m638 -50 c3 -4 -58 -6 -135 -6 -77 0 -156 -3 -174 -6 -19 -4 -31 -4 -27 1
16 17 320 27 336 11z m-828 0 c0 -2 -8 -10 -17 -17 -16 -13 -17 -12 -4 4 13
16 21 21 21 13z m898 -3 c-10 -2 -28 -2 -40 0 -13 2 -5 4 17 4 22 1 32 -1 23
-4z m-163 -53 c-27 -5 -77 -8 -110 -7 l-60 0 65 7 c36 4 85 7 110 7 l45 0 -50
-7z m-196 -14 c-2 -2 -24 -6 -48 -9 -29 -4 -40 -2 -30 4 13 8 88 14 78 5z
m-530 -8 c-2 -2 -17 -14 -34 -28 l-30 -25 24 28 c14 15 29 27 34 27 6 0 8 -1
6 -2z m796 -10 c-4 -10 13 -12 72 -10 82 4 97 -6 22 -13 -24 -3 -68 -8 -98
-11 -38 -4 -51 -2 -46 5 4 8 -7 10 -37 6 -48 -6 -36 2 32 21 59 16 60 16 55 2z
m322 -24 c-3 -3 -12 -4 -19 -1 -8 3 -5 6 6 6 11 1 17 -2 13 -5z m-1657 -19
c-12 -14 -70 -47 -70 -39 0 4 71 52 79 53 2 1 -2 -6 -9 -14z m540 1 c0 -10
-71 -59 -76 -53 -3 3 12 17 33 31 39 27 43 29 43 22z m1040 -26 c0 -5 -15 -9
-32 -9 l-33 1 30 8 c17 4 31 8 33 9 1 0 2 -3 2 -9z m-1155 -23 c-8 -13 -29
-34 -47 -46 -28 -20 -26 -16 12 23 49 51 58 57 35 23z m923 -4 c-16 -2 -40 -2
-55 0 -16 2 -3 4 27 4 30 0 43 -2 28 -4z m-418 -23 c-20 -13 -33 -13 -25 0 3
6 14 10 23 10 15 0 15 -2 2 -10z m1007 4 c-3 -3 -12 -4 -19 -1 -8 3 -5 6 6 6
11 1 17 -2 13 -5z m-1198 -17 c-18 -15 -99 -54 -99 -48 0 7 78 49 94 50 5 1 7
0 5 -2z m666 -7 c-51 -11 -77 -12 -72 -2 3 4 29 8 59 9 52 1 52 1 13 -7z
m-1847 -86 c-29 -42 -62 -81 -73 -87 -16 -8 -14 -2 9 29 43 57 107 134 112
134 2 0 -19 -34 -48 -76z m1028 55 c-15 -12 -30 -19 -33 -15 -4 3 -1 6 5 6 7
0 12 7 12 15 0 9 9 15 21 15 20 0 20 -1 -5 -21z m168 9 c-5 -8 -2 -9 10 -5 10
4 15 3 11 -3 -3 -6 -18 -10 -33 -10 -26 1 -26 1 -8 15 24 18 30 19 20 3z m885
-2 c-11 -9 -139 -16 -139 -7 0 6 30 11 68 13 65 3 80 2 71 -6z m-1154 -41
c-74 -41 -95 -50 -95 -42 0 6 96 66 121 76 60 24 47 6 -26 -34z m705 41 c0 -2
-11 -6 -25 -8 -13 -3 -22 -1 -19 3 5 9 44 13 44 5z m-1280 -46 c-12 -16 -24
-30 -26 -30 -7 0 5 20 24 43 24 27 25 20 2 -13z m156 9 c-8 -11 -25 -28 -38
-36 -15 -11 -11 -4 11 20 39 41 49 47 27 16z m-204 -20 c-10 -17 -30 -38 -43
-47 -43 -30 -115 -114 -174 -205 -31 -49 -60 -86 -63 -83 -9 9 82 136 164 230
42 47 72 86 69 86 -21 0 36 44 63 49 2 1 -5 -13 -16 -30z m1053 17 c-11 -7
-36 -16 -55 -20 l-35 -6 40 20 c47 23 80 27 50 6z m415 4 c-34 -11 -60 -11
-35 0 11 5 29 8 40 8 16 0 15 -2 -5 -8z m420 -22 c-36 -4 -72 -5 -80 -1 -17 8
107 21 130 13 8 -2 -14 -8 -50 -12z m243 5 c-7 -2 -21 -2 -30 0 -10 3 -4 5 12
5 17 0 24 -2 18 -5z m-1303 -8 c0 -5 -108 -75 -116 -75 -10 0 50 46 81 63 34
18 35 19 35 12z m730 1 c0 -2 -9 -6 -20 -9 -11 -3 -18 -1 -14 4 5 9 34 13 34
5z m60 -5 c-8 -5 -26 -12 -40 -16 -24 -7 -24 -7 -5 9 11 8 29 15 40 15 16 0
17 -1 5 -8z m-1823 -103 c-82 -103 -163 -226 -154 -235 8 -7 -27 -76 -47 -92
-61 -51 78 207 170 315 24 28 41 54 38 57 -5 5 53 47 64 47 1 0 -31 -42 -71
-92z m1183 77 c0 -2 -10 -9 -22 -15 -22 -11 -22 -10 -4 4 21 17 26 19 26 11z
m120 -15 c-8 -5 -19 -10 -25 -10 -5 0 -3 5 5 10 8 5 20 10 25 10 6 0 3 -5 -5
-10z m933 3 c-7 -2 -21 -2 -30 0 -10 3 -4 5 12 5 17 0 24 -2 18 -5z m-1579
-28 c-9 -14 -19 -23 -22 -20 -5 4 26 45 35 45 2 0 -4 -11 -13 -25z m146 9 c-8
-8 -23 -20 -34 -26 -19 -10 -18 -8 3 16 26 27 53 37 31 10z m1030 1 c-19 -7
-42 -13 -50 -13 -8 0 1 6 20 13 19 7 42 13 50 13 8 0 -1 -6 -20 -13z m247 9
c-3 -3 -12 -4 -19 -1 -8 3 -5 6 6 6 11 1 17 -2 13 -5z m223 -10 c0 -2 -9 -4
-21 -4 -11 0 -18 4 -14 10 5 8 35 3 35 -6z m-295 -4 c-28 -12 -37 -12 -30 0 3
6 16 10 28 9 21 0 21 -1 2 -9z m-1641 -22 c-26 -30 -35 -40 -64 -63 -14 -11
-3 4 25 33 49 52 75 72 39 30z m1746 -14 c-74 -20 -142 -42 -151 -50 -8 -8
-19 -14 -24 -14 -5 0 -18 -8 -29 -19 -20 -18 -116 -55 -123 -47 -2 2 20 13 49
26 29 12 73 36 98 52 48 32 224 84 295 86 11 0 -41 -15 -115 -34z m247 10 c-3
-3 -12 -4 -19 -1 -8 3 -5 6 6 6 11 1 17 -2 13 -5z m-1157 -11 c-1 -12 -91 -64
-103 -60 -6 2 12 17 39 34 51 33 64 38 64 26z m-1372 -92 c-54 -81 -66 -93
-49 -50 8 23 88 129 97 129 2 0 -20 -36 -48 -79z m332 75 c0 -2 -8 -10 -17
-17 -16 -13 -17 -12 -4 4 13 16 21 21 21 13z m435 -26 c-10 -11 -20 -18 -23
-15 -7 6 18 35 31 35 5 0 2 -9 -8 -20z m1185 -19 c-25 -16 -65 -32 -90 -35
-57 -9 -52 -4 40 33 94 38 107 38 50 2z m455 19 c-3 -5 -32 -10 -63 -10 -41 0
-53 3 -42 10 20 13 113 13 105 0z m-2735 -88 c-21 -48 -43 -108 -50 -133 -14
-54 -31 -101 -36 -96 -14 14 101 317 120 317 2 0 -13 -40 -34 -88z m1974 73
c-10 -8 -23 -14 -29 -14 -5 0 -1 6 9 14 11 8 24 15 30 15 5 0 1 -7 -10 -15z
m-1358 -22 c-8 -16 -22 -37 -31 -48 -15 -19 -16 -19 -4 5 16 32 40 70 45 70 3
0 -2 -12 -10 -27z m708 -47 c-81 -75 -115 -95 -53 -30 31 33 118 103 128 104
2 0 -31 -33 -75 -74z m786 60 c0 -2 -7 -7 -16 -10 -8 -3 -12 -2 -9 4 6 10 25
14 25 6z m680 -6 c11 -7 3 -10 -30 -9 -34 0 -40 2 -25 9 27 12 37 12 55 0z
m-959 -38 c-35 -27 -185 -113 -166 -94 12 12 188 122 195 122 3 0 -11 -13 -29
-28z m977 -24 c-25 -7 -47 -6 -65 0 -24 9 -18 10 37 10 61 0 63 -1 28 -10z
m-2499 -35 c-25 -32 -49 -43 -49 -23 0 6 6 10 14 10 7 0 19 7 26 15 17 21 25
19 9 -2z m2606 -79 c98 -21 140 -35 126 -43 -7 -5 2 -15 24 -27 19 -10 35 -22
35 -26 0 -5 -8 -4 -17 1 -92 47 -163 75 -243 96 -70 18 -82 23 -45 19 28 -3
82 -12 120 -20z m-472 9 c-7 -2 -19 -2 -25 0 -7 3 -2 5 12 5 14 0 19 -2 13 -5z
m-2204 -73 c-16 -39 -33 -88 -39 -110 -6 -21 -16 -42 -22 -46 -7 -5 -9 -2 -6
8 3 8 18 52 33 99 21 68 47 119 60 119 2 0 -10 -32 -26 -70z m-154 -56 c-9
-38 -21 -73 -27 -79 -7 -7 -9 -4 -5 10 3 11 9 43 13 70 6 46 21 81 31 72 2 -2
-4 -35 -12 -73z m440 29 c-10 -14 -26 -41 -37 -60 -11 -18 -22 -33 -24 -33 -7
0 37 83 54 103 23 26 27 21 7 -10z"/>
<path d="M4022 4746 c-22 -24 -52 -66 -65 -93 -30 -59 -81 -216 -97 -301 -7
-34 -14 -61 -16 -59 -5 5 22 197 41 290 24 113 13 116 -23 7 -54 -169 -88
-400 -99 -667 -7 -206 8 -235 27 -50 18 184 28 209 22 56 -3 -91 -1 -142 6
-155 10 -16 11 -14 12 18 0 55 28 288 51 428 39 241 100 437 160 520 41 57 31
60 -19 6z m-185 -508 c-3 -8 -6 -5 -6 6 -1 11 2 17 5 13 3 -3 4 -12 1 -19z
m-10 -95 c-3 -10 -5 -4 -5 12 0 17 2 24 5 18 2 -7 2 -21 0 -30z"/>
<path d="M4169 4751 c-117 -75 -204 -210 -249 -385 -29 -116 -24 -132 14 -41
61 149 148 289 241 393 31 34 53 62 48 62 -5 0 -29 -13 -54 -29z"/>
<path d="M3775 4680 c-26 -42 -79 -235 -100 -365 l-13 -80 -1 102 c0 56 4 147
10 202 6 56 9 106 7 113 -5 13 -30 -91 -49 -197 -13 -81 -13 -463 1 -550 25
-161 33 -195 41 -195 5 0 7 12 3 28 -6 24 -5 25 7 9 12 -15 14 13 15 190 0
115 6 255 13 313 11 92 59 354 77 418 6 23 0 30 -11 12z"/>
<path d="M3812 4638 c-43 -109 -76 -287 -92 -498 -11 -149 -11 -338 -1 -385 7
-29 13 19 42 360 14 165 46 416 64 499 8 38 13 71 11 73 -2 2 -13 -20 -24 -49z"/>
<path d="M3598 4538 c-50 -163 -73 -361 -65 -565 5 -142 22 -273 36 -273 3 0
5 90 3 201 -3 196 10 384 41 603 7 47 10 86 7 86 -4 0 -14 -24 -22 -52z"/>
<path d="M3323 4513 c-14 -100 -8 -417 11 -543 19 -128 61 -299 78 -315 7 -7
9 -4 5 10 -6 18 -48 370 -61 503 -3 29 -8 130 -12 225 -3 94 -8 174 -9 175 -2
2 -7 -23 -12 -55z"/>
<path d="M3440 4518 c-25 -116 -39 -387 -29 -564 12 -223 37 -365 40 -228 l2
59 10 -57 c6 -32 13 -58 17 -58 4 0 6 182 6 405 -1 222 -4 392 -9 377 -4 -15
-12 -49 -17 -77 -7 -40 -9 -26 -6 73 2 67 2 122 0 122 -1 0 -7 -24 -14 -52z"/>
<path d="M3250 4355 c-1 -11 -3 -31 -4 -45 -6 -49 13 -272 29 -353 29 -145 95
-340 111 -325 3 3 -4 41 -15 84 -32 127 -69 324 -91 487 -22 158 -27 186 -30
152z"/>
<path d="M7266 3842 c5 -5 71 -59 146 -121 76 -62 177 -154 224 -204 93 -98
101 -95 29 13 -67 101 -204 227 -302 278 -74 38 -122 55 -97 34z"/>
<path d="M1532 2883 l3 -948 1778 -3 1777 -2 0 55 0 55 -1725 0 -1725 0 0 840
0 840 758 2 757 3 3 53 3 52 -816 0 -815 0 2 -947z"/>
<path d="M7732 3778 l3 -53 893 -3 892 -2 0 -840 0 -840 -75 0 -75 0 0 -55 0
-55 130 0 130 0 0 950 0 950 -951 0 -950 0 3 -52z"/>
<path d="M1810 2884 l0 -386 163 4 c157 3 165 5 222 33 33 17 72 47 89 68 26
32 31 49 34 107 3 56 0 78 -18 114 -21 43 -90 106 -116 106 -28 0 -22 19 11
39 100 59 97 200 -6 268 -42 28 -45 28 -211 31 l-168 3 0 -387z m285 330 c47
-31 61 -142 25 -202 -24 -39 -54 -52 -121 -52 l-49 0 0 135 0 135 60 0 c38 0
70 -6 85 -16z m16 -317 c42 -28 58 -71 58 -160 1 -77 -16 -126 -55 -162 -23
-22 -36 -25 -95 -25 l-69 0 0 185 0 185 64 0 c49 0 71 -5 97 -23z"/>
<path d="M2410 2885 l0 -385 218 2 c209 3 217 4 217 23 0 19 -8 20 -142 23
l-143 3 0 160 0 160 113 -2 c107 -2 112 -1 115 20 3 20 0 21 -112 21 l-116 0
0 160 0 159 142 3 c127 3 143 5 146 21 3 16 -12 17 -217 17 l-221 0 0 -385z"/>
<path d="M3150 3113 c-35 -87 -103 -259 -151 -382 -49 -124 -89 -229 -89 -234
0 -4 9 -7 21 -5 17 2 32 29 73 133 l52 130 106 3 106 3 17 -53 c10 -29 31 -90
47 -135 l30 -83 74 0 c44 0 74 4 74 10 0 6 -32 95 -71 198 -39 103 -102 270
-141 372 -38 102 -73 189 -78 193 -4 5 -36 -63 -70 -150z m63 -201 c21 -57 37
-105 37 -108 0 -2 -40 -4 -89 -4 l-89 0 46 115 c25 63 49 112 52 108 4 -5 23
-54 43 -111z"/>
<path d="M3582 2978 l3 -293 29 -52 c52 -94 144 -137 279 -131 107 4 169 33
213 100 45 67 54 137 54 421 l0 247 -25 0 -25 0 0 -272 c0 -152 -5 -289 -10
-309 -25 -89 -87 -137 -187 -146 -76 -6 -119 16 -153 77 -25 45 -25 46 -28
348 l-3 302 -75 0 -75 0 3 -292z"/>
<path d="M4202 3253 c3 -16 17 -18 105 -21 l103 -3 2 -362 3 -362 73 -3 72 -3
0 366 0 365 105 0 c98 0 105 1 105 20 0 20 -7 20 -286 20 -266 0 -285 -1 -282
-17z"/>
<path d="M4813 3263 c3 -4 64 -115 136 -246 l131 -238 0 -140 0 -140 73 3 72
3 5 155 5 155 54 105 c30 58 80 160 112 228 55 116 57 122 35 122 -19 0 -36
-29 -121 -205 -54 -113 -102 -202 -106 -198 -4 4 -57 96 -117 203 l-109 195
-87 3 c-48 1 -86 -1 -83 -5z"/>
<path d="M7322 3259 c-121 -23 -214 -95 -269 -206 -36 -72 -38 -82 -38 -172 0
-87 4 -103 32 -163 39 -84 97 -142 180 -180 208 -98 462 -20 555 170 31 62 33
73 33 172 0 93 -3 112 -27 162 -79 169 -267 257 -466 217z m146 -41 c64 -16
132 -84 162 -164 35 -89 39 -223 11 -312 -42 -130 -122 -202 -225 -202 -161 0
-281 218 -237 432 26 124 91 212 178 244 47 17 54 17 111 2z"/>
<path d="M9077 3259 c-157 -37 -219 -174 -135 -299 22 -32 71 -68 207 -153 61
-38 101 -92 101 -134 -1 -37 -39 -102 -69 -117 -68 -36 -200 -3 -252 62 -20
26 -21 26 -35 7 -13 -17 -11 -22 13 -47 15 -16 51 -40 80 -54 43 -22 66 -26
135 -25 179 1 278 69 278 193 0 91 -54 154 -225 261 -42 27 -85 63 -96 80 -39
65 -16 157 48 183 45 19 130 3 173 -32 16 -14 34 -23 40 -19 20 12 9 40 -23
62 -60 40 -152 53 -240 32z"/>
<path d="M5810 2879 l0 -381 168 4 c160 3 169 4 225 31 67 33 101 73 117 139
25 96 -31 207 -124 249 l-39 17 29 15 c49 26 76 62 81 111 7 58 -1 87 -34 127
-49 58 -89 69 -265 69 l-158 0 0 -381z m297 317 c25 -21 28 -31 31 -100 4 -73
3 -76 -26 -106 -27 -27 -37 -30 -91 -30 l-61 0 0 130 0 130 59 0 c49 0 65 -4
88 -24z m3 -301 c37 -19 49 -41 61 -113 13 -81 -4 -154 -46 -200 -30 -33 -38
-36 -99 -40 l-66 -4 0 186 0 186 60 0 c35 0 74 -7 90 -15z"/>
<path d="M6410 2881 l0 -381 75 0 75 0 0 175 0 175 28 0 c23 0 49 -26 175
-175 117 -139 153 -175 173 -175 13 0 24 3 24 8 0 4 -64 81 -141 172 l-140
165 42 7 c172 30 258 191 165 312 -14 19 -52 47 -83 63 -56 27 -65 28 -225 31
l-168 4 0 -381z m296 320 c41 -25 64 -77 64 -145 0 -68 -18 -115 -55 -144 -22
-17 -41 -22 -91 -22 l-64 0 0 165 0 165 58 0 c38 0 67 -6 88 -19z"/>
<path d="M7866 3193 c15 -38 43 -115 64 -173 80 -220 182 -496 190 -510 7 -12
11 -9 20 15 70 187 185 475 189 475 3 0 53 -106 110 -235 57 -130 109 -242
115 -250 9 -12 35 52 120 287 60 167 122 338 138 381 l28 77 -23 0 c-20 0 -31
-25 -113 -251 l-91 -250 -109 250 c-60 138 -112 251 -115 251 -3 0 -48 -107
-99 -237 -51 -131 -96 -242 -100 -246 -8 -9 -20 23 -125 321 l-58 162 -83 0
-83 0 25 -67z"/>
<path d="M5284 2304 c-50 -85 -115 -311 -101 -349 11 -26 21 -17 55 48 18 35
46 77 62 92 l30 29 0 -30 c0 -32 -32 -108 -49 -119 -7 -4 -18 -1 -26 5 -12 10
-15 10 -15 -2 0 -8 5 -19 12 -26 33 -33 72 3 102 93 18 53 15 89 -9 99 -25 9
-44 -4 -85 -62 -22 -30 -40 -53 -40 -51 0 18 44 158 63 201 28 62 52 89 72 82
22 -9 18 14 -4 26 -32 16 -39 12 -67 -36z"/>
<path d="M7936 2312 c-30 -48 -72 -164 -97 -271 -18 -74 -19 -86 -6 -99 13
-13 18 -9 36 34 l22 48 37 -63 c43 -74 74 -95 97 -65 19 25 19 35 -1 27 -22
-8 -59 31 -84 88 -22 52 -19 71 16 100 16 13 17 12 10 -6 -12 -33 -12 -39 5
-42 11 -3 20 6 27 26 9 24 7 32 -9 47 -18 16 -20 16 -38 0 -11 -10 -32 -35
-47 -57 -15 -22 -29 -38 -31 -36 -6 7 48 169 73 220 23 44 32 52 62 48 17 -3
15 10 -5 25 -28 21 -41 17 -67 -24z"/>
<path d="M8137 2332 c-44 -49 -139 -337 -123 -377 10 -26 20 -17 54 48 18 35
46 77 62 92 27 26 30 27 30 9 0 -12 -9 -49 -21 -84 -19 -59 -20 -90 -2 -90 12
0 65 100 53 100 -5 0 -7 21 -3 49 5 42 3 50 -15 60 -18 9 -26 4 -67 -41 -43
-48 -46 -49 -39 -22 15 64 56 171 79 205 19 30 29 36 47 32 23 -6 23 -6 4 15
-23 27 -38 28 -59 4z"/>
<path d="M9063 2317 c-44 -64 -118 -300 -111 -355 5 -42 23 -35 44 15 l20 48
31 -55 c40 -72 68 -98 91 -84 23 15 29 46 8 38 -22 -9 -43 11 -72 68 -30 58
-30 79 -3 104 21 19 22 19 15 -3 -9 -29 13 -42 31 -18 18 26 16 48 -7 62 -17
11 -24 8 -57 -28 -21 -22 -41 -48 -45 -57 -16 -40 -7 19 13 84 36 117 78 188
105 177 21 -8 17 15 -5 27 -29 15 -34 13 -58 -23z"/>
<path d="M5967 2264 c-15 -12 -25 -29 -22 -36 7 -16 -82 -103 -111 -111 -21
-4 -22 -4 -7 32 8 20 24 53 35 74 10 21 16 41 14 46 -6 9 -159 -48 -178 -67
-8 -8 -8 -19 2 -41 11 -29 32 -34 29 -8 -3 27 3 35 41 52 47 21 58 15 40 -22
-7 -16 -27 -72 -45 -125 -29 -83 -31 -99 -19 -109 8 -6 16 -10 18 -8 2 2 11
36 20 75 17 71 18 72 42 59 13 -7 47 -42 75 -79 55 -74 78 -81 108 -36 15 23
15 24 -2 17 -27 -10 -52 7 -97 67 l-40 53 75 76 c41 42 75 83 75 91 0 24 -25
25 -53 0z"/>
<path d="M7593 2273 c-18 -7 -33 -18 -33 -24 0 -6 7 -8 15 -5 8 3 22 9 30 12
18 7 21 -36 4 -53 -12 -12 -4 -33 12 -33 11 0 49 59 49 76 0 7 -10 18 -22 26
-20 13 -28 13 -55 1z"/>
<path d="M6326 2248 c-7 -13 -20 -41 -27 -62 -8 -22 -22 -41 -31 -44 -20 -5
-24 -18 -7 -24 8 -3 6 -25 -6 -75 -10 -40 -15 -79 -12 -88 10 -23 43 -18 66
12 25 31 19 44 -9 18 -11 -10 -22 -16 -25 -13 -3 2 3 36 13 74 15 60 21 69 42
72 37 5 49 22 17 22 -15 0 -27 4 -27 9 0 21 31 81 47 90 16 9 16 12 3 21 -22
14 -28 13 -44 -12z"/>
<path d="M8806 2255 c-8 -8 -22 -37 -31 -64 -11 -34 -23 -51 -38 -55 -19 -6
-20 -7 -5 -16 14 -9 15 -15 3 -52 -26 -91 -27 -116 -5 -128 17 -9 24 -6 45 16
29 31 34 55 7 31 -10 -10 -22 -17 -27 -17 -8 0 -1 54 15 113 10 32 15 37 40
37 17 0 30 5 30 10 0 6 -11 10 -24 10 -23 0 -24 2 -13 35 5 19 19 44 29 54 22
24 22 27 3 35 -8 3 -21 -1 -29 -9z"/>
<path d="M7501 2224 c-12 -15 -21 -32 -21 -38 0 -6 16 -47 35 -91 19 -44 35
-92 35 -107 0 -24 -4 -28 -28 -28 -37 0 -110 52 -118 85 -7 28 -16 31 -33 11
-17 -20 -2 -45 50 -90 61 -52 93 -56 135 -15 43 42 44 70 3 149 -32 60 -39
100 -25 133 12 26 -10 21 -33 -9z"/>
<path d="M5395 2124 c-16 -25 -16 -26 3 -20 18 6 19 3 10 -50 -5 -31 -13 -66
-19 -76 -8 -15 -7 -24 3 -35 13 -12 19 -9 49 24 19 21 44 52 56 68 l22 30 -20
-75 c-30 -109 -57 -166 -96 -200 -40 -35 -57 -37 -100 -10 -26 15 -33 17 -33
6 0 -19 61 -56 93 -56 38 0 90 51 120 118 32 71 79 245 75 274 -4 30 -25 34
-34 6 -9 -29 -84 -141 -90 -135 -3 2 0 24 5 48 17 72 14 109 -8 109 -10 0 -26
-12 -36 -26z"/>
<path d="M6101 2115 c-63 -72 -90 -158 -55 -172 12 -4 31 9 64 44 l48 49 -2
-44 c-1 -57 15 -64 34 -15 8 21 17 42 19 47 2 5 -1 6 -8 2 -15 -10 -14 8 4 51
16 38 6 67 -20 57 -7 -3 -16 -1 -20 5 -11 20 -32 12 -64 -24z m73 -3 c6 -10
-92 -142 -105 -142 -13 0 -11 17 7 53 38 75 82 115 98 89z"/>
<path d="M6386 2103 c-20 -34 -29 -62 -30 -98 -1 -46 1 -50 28 -59 26 -10 31
-8 62 28 41 47 45 70 7 34 -16 -14 -38 -31 -50 -37 -21 -10 -23 -9 -23 11 0
48 10 65 35 60 33 -6 65 29 65 73 0 33 -2 35 -33 35 -28 0 -36 -6 -61 -47z
m62 -4 c-3 -24 -33 -48 -44 -36 -8 8 23 57 37 57 6 0 9 -10 7 -21z"/>
<path d="M6584 2105 c-29 -51 -45 -55 -19 -6 14 28 14 32 0 37 -9 4 -23 -3
-35 -17 -22 -27 -26 -44 -8 -33 8 5 9 2 5 -11 -17 -42 -29 -106 -23 -120 7
-20 25 -19 33 3 32 95 87 183 81 132 -4 -28 19 -39 29 -13 6 18 22 33 34 33 9
0 -10 -109 -22 -132 -8 -15 -7 -24 3 -35 13 -12 19 -9 49 24 19 21 44 52 56
68 l22 30 -20 -75 c-30 -109 -57 -166 -96 -200 -40 -35 -57 -37 -100 -10 -26
15 -33 17 -33 6 0 -19 61 -56 93 -56 38 0 90 51 120 118 32 71 79 245 75 274
-4 30 -25 34 -34 6 -9 -29 -84 -141 -90 -135 -3 2 0 24 5 48 17 73 14 109 -9
109 -10 0 -25 -10 -31 -22 l-12 -22 -8 22 c-13 34 -36 26 -65 -23z"/>
<path d="M6877 2132 c-21 -23 -22 -39 -2 -22 19 16 19 9 -5 -78 -31 -111 -12
-122 40 -23 18 32 45 71 61 87 27 26 29 26 29 7 0 -12 -9 -50 -20 -85 -24 -75
-24 -78 -6 -78 8 0 26 23 40 50 14 28 22 50 18 50 -5 0 -7 22 -4 48 3 41 1 50
-14 56 -15 6 -29 -3 -61 -39 -42 -45 -42 -45 -33 -14 7 22 6 37 -1 46 -15 17
-23 16 -42 -5z"/>
<path d="M7120 2120 c-37 -40 -84 -135 -76 -155 14 -37 39 -29 89 26 37 40 47
48 41 29 -23 -71 4 -106 33 -43 9 21 19 42 21 47 3 5 -2 6 -11 3 -14 -5 -14
-2 -1 35 19 55 18 65 -8 71 -13 2 -31 8 -40 12 -13 5 -26 -2 -48 -25z m70 -11
c0 -27 -103 -149 -116 -137 -8 8 29 79 61 117 26 30 55 41 55 20z"/>
<path d="M8266 2131 c-21 -23 -56 -113 -56 -145 0 -28 15 -42 53 -51 45 -12
86 37 106 126 12 55 0 80 -37 77 -15 -1 -32 1 -38 5 -6 4 -19 -2 -28 -12z m59
-106 c-8 -24 -25 -51 -36 -61 -20 -18 -21 -18 -34 -1 -13 18 -12 33 7 95 7 24
20 38 42 47 30 13 31 13 34 -12 2 -14 -4 -45 -13 -68z"/>
<path d="M8516 2128 c-3 -13 -6 -34 -6 -47 0 -26 -48 -121 -62 -121 -13 0 -9
113 6 142 15 28 12 38 -12 38 -15 0 -33 -18 -53 -54 -10 -16 -9 -18 6 -13 14
6 16 2 10 -23 -4 -17 -4 -48 0 -69 5 -31 12 -40 30 -44 29 -5 43 10 75 73 13
25 26 47 30 50 4 3 11 24 15 48 6 38 5 42 -13 42 -12 0 -22 -9 -26 -22z"/>
<path d="M8618 2133 c-32 -39 -47 -73 -54 -121 -6 -47 -5 -51 21 -68 l26 -17
42 41 c49 49 43 68 -8 23 -40 -35 -55 -39 -55 -13 0 44 12 62 40 62 40 0 60
24 60 71 0 36 -2 39 -28 39 -16 0 -36 -8 -44 -17z m40 -40 c-2 -20 -9 -29 -26
-31 -23 -4 -23 -3 -7 27 19 38 37 40 33 4z"/>
<path d="M8894 2139 c-51 -15 -59 -31 -40 -86 25 -72 22 -82 -24 -89 -38 -6
-57 -24 -26 -24 8 0 21 -3 29 -6 22 -8 81 52 72 74 -3 9 -12 36 -18 60 -10 36
-9 45 3 52 11 7 16 4 20 -15 6 -30 26 -21 31 14 5 28 -5 32 -47 20z"/>
<path d="M9208 2131 c-29 -23 -88 -130 -88 -159 0 -11 7 -25 16 -32 13 -11 23
-5 68 43 l53 56 -10 -45 c-9 -37 -8 -47 4 -55 11 -6 18 1 32 34 11 24 14 43 8
45 -6 2 -4 19 5 45 16 45 12 72 -10 64 -8 -3 -20 1 -26 9 -16 18 -22 18 -52
-5z m62 -28 c0 -10 -68 -98 -94 -122 -32 -31 -35 -12 -5 44 28 53 68 95 85 88
8 -3 14 -7 14 -10z"/>
<path d="M7653 2108 c-9 -18 -16 -38 -15 -44 1 -6 -2 -32 -7 -58 -7 -37 -5
-50 6 -61 21 -22 29 -19 59 23 16 20 31 41 35 46 4 5 5 -10 2 -33 -5 -33 -3
-41 11 -41 18 0 48 62 34 71 -5 3 0 30 11 60 15 38 18 56 10 64 -8 7 -15 4
-23 -8 -6 -11 -33 -53 -61 -95 -44 -68 -50 -74 -53 -51 -2 15 6 53 17 85 11
32 17 62 15 66 -10 16 -24 7 -41 -24z"/>
</g>
</svg>
